<svg width="64" height="64" viewBox="0 0 64 64" fill="none" xmlns="http://www.w3.org/2000/svg">
  <rect x="4" y="4" width="56" height="56" rx="16" fill="#0F172A"/>
  <path d="M18 24L28 32L18 40" stroke="#5EEAD4" stroke-width="5" stroke-linecap="round" stroke-linejoin="round"/>
  <rect x="31" y="37" width="12" height="5" rx="2.5" fill="#5EEAD4"/>
  <path d="M47.1597 17.6708C48.8769 16.5148 51.0758 16.3529 52.9427 17.1852L49.4287 20.6992C48.8429 21.285 48.8429 22.2347 49.4287 22.8205L51.1795 24.5713C51.7653 25.1571 52.715 25.1571 53.3008 24.5713L56.8148 21.0573C57.6471 22.9242 57.4852 25.1231 56.3292 26.8403C55.0855 28.6876 52.846 29.515 50.7273 28.9401L43.6799 35.9875C43.0941 36.5732 42.1444 36.5732 41.5586 35.9875L38.0125 32.4414C37.4268 31.8556 37.4268 30.9059 38.0125 30.3201L45.0599 23.2727C44.485 21.154 45.3124 18.9145 47.1597 17.6708Z" fill="#F59E0B"/>
</svg>
